<svg xmlns="http://www.w3.org/2000/svg" version="1.1" xmlns:xlink="http://www.w3.org/1999/xlink" xmlns:svgjs="http://svgjs.dev/svgjs" width="1000" height="623" viewBox="0 0 1000 623"><g transform="matrix(1,0,0,1,-0.6060606060606233,0.2522267206477409)"><svg viewBox="0 0 396 247" data-background-color="#ffffff" preserveAspectRatio="xMidYMid meet" height="623" width="1000" xmlns="http://www.w3.org/2000/svg" xmlns:xlink="http://www.w3.org/1999/xlink"><defs></defs><g id="tight-bounds" transform="matrix(1,0,0,1,0.2400000000000091,-0.09999999999999432)"><svg viewBox="0 0 395.52 247.2" height="247.2" width="395.52"><g><svg></svg></g><g><svg viewBox="0 0 395.52 247.2" height="247.2" width="395.52"><g transform="matrix(1,0,0,1,75.54432,69.82119954849412)"><svg viewBox="0 0 244.43135999999998 107.55760090301176" height="107.55760090301176" width="244.43135999999998"><g><svg viewBox="0 0 244.43135999999998 107.55760090301176" height="107.55760090301176" width="244.43135999999998"><g><svg viewBox="0 0 244.43136 107.55760090301177" height="107.55760090301176" width="244.43135999999998"><g><svg viewBox="0 0 244.43136 107.55760090301177" height="107.55760090301177" width="244.43136"><g><svg viewBox="0 0 244.43136 107.55760090301177" height="107.55760090301177" width="244.43136"><g><svg viewBox="0 0 244.43136 66.55940409552566" height="66.55940409552566" width="244.43136"><g transform="matrix(1,0,0,1,0,0)"><svg width="244.43136" viewBox="4 -37.5 182.1300048828125 49.599998474121094" height="66.55940409552566" data-palette-color="#0225e0"><path d="M8.75 0L4 0 4-35 8.75-35 8.75 0ZM19.85 0L15.35 0 15.35-24.5 18.85-24.5 19.75-19.8 18-20.55Q20.47-23.3 22.84-24.15 25.2-25 27.45-25L27.45-25Q32.82-25 35.14-21.9 37.45-18.8 37.45-13.5L37.45-13.5 37.45 0 32.95 0 32.95-13.5Q32.95-17.4 31.5-19.2 30.05-21 26.55-21L26.55-21Q24.07-21 22.01-19.91 19.95-18.82 19.3-16.45L19.3-16.45 19.85-19.2 19.85 0ZM54.45 0L49.4 0 40.05-24.5 45.05-24.5 51.9-4.95 58.7-24.5 63.75-24.5 54.45 0ZM77.49 0.5L77.49 0.5Q73.64 0.5 70.93-1.21 68.22-2.93 66.78-5.81 65.34-8.7 65.34-12.25L65.34-12.25Q65.34-15.8 66.78-18.69 68.22-21.58 70.93-23.29 73.64-25 77.49-25L77.49-25Q81.32-25 84.04-23.29 86.77-21.58 88.21-18.69 89.64-15.8 89.64-12.25L89.64-12.25Q89.64-8.7 88.21-5.81 86.77-2.93 84.04-1.21 81.32 0.5 77.49 0.5ZM77.49-3.5L77.49-3.5Q81.14-3.5 83.09-5.81 85.04-8.13 85.04-12.25L85.04-12.25Q85.04-16.38 83.09-18.69 81.14-21 77.49-21L77.49-21Q73.87-21 71.91-18.69 69.94-16.38 69.94-12.25L69.94-12.25Q69.94-8.13 71.91-5.81 73.87-3.5 77.49-3.5ZM98.79 0L94.29 0 94.29-24.5 98.79-24.5 98.79 0ZM98.79-30L94.29-30 94.29-35 98.79-35 98.79-30ZM116.14 0.5L116.14 0.5Q111.99 0.5 109.18-1.19 106.36-2.88 104.93-5.74 103.49-8.6 103.49-12.1L103.49-12.1Q103.49-15.75 104.88-18.68 106.26-21.6 109.14-23.3 112.01-25 116.49-25L116.49-25Q118.41-25 120.13-24.61 121.84-24.23 123.19-23.55L123.19-23.55 122.49-19.6Q121.11-20.25 119.58-20.63 118.04-21 116.39-21L116.39-21Q112.34-21 110.21-18.7 108.09-16.4 108.09-12.3L108.09-12.3Q108.09-8.3 110.11-5.88 112.14-3.45 116.29-3.45L116.29-3.45Q117.99-3.45 119.55-3.85 121.11-4.25 122.54-4.95L122.54-4.95 123.14-1.35Q122.14-0.65 120.21-0.08 118.29 0.5 116.14 0.5ZM138.99 0.5L138.99 0.5Q134.66 0.5 131.71-1.28 128.76-3.05 127.25-5.99 125.74-8.93 125.74-12.45L125.74-12.45Q125.74-15.88 127.15-18.73 128.56-21.58 131.25-23.29 133.94-25 137.74-25L137.74-25Q140.79-25 143.17-23.79 145.56-22.58 146.92-20.26 148.29-17.95 148.29-14.65L148.29-14.65Q148.29-14.13 148.25-13.51 148.21-12.9 148.09-12.25L148.09-12.25 130.34-12.25Q130.66-8.85 131.96-6.95 133.26-5.05 135.24-4.28 137.21-3.5 139.54-3.5L139.54-3.5Q141.24-3.5 143.09-3.85 144.94-4.2 146.59-4.95L146.59-4.95 147.19-1.4Q145.76-0.78 143.71-0.14 141.66 0.5 138.99 0.5ZM130.74-15.35L130.74-15.35 143.64-15.35Q143.64-17.07 142.99-18.35 142.34-19.63 141.01-20.31 139.69-21 137.64-21L137.64-21Q134.64-21 133.02-19.51 131.41-18.03 130.74-15.35ZM160.58 0.5L159.13 0.5Q156.76 0.5 155.37-0.36 153.98-1.23 153.38-2.58 152.78-3.93 152.78-5.4L152.78-5.4 152.78-37.5 157.28-37.5 157.28-8Q157.28-5.9 157.56-4.85 157.83-3.8 158.67-3.45 159.51-3.1 161.23-3.1L161.23-3.1 160.58 0.5ZM171.13 12.1L166.13 12.1 171.78-1.1 161.58-24.5 166.58-24.5 174.23-6.3 181.13-24.5 186.13-24.5 171.13 12.1Z" opacity="1" transform="matrix(1,0,0,1,0,0)" fill="#0225e0" class="undefined-text-0" data-fill-palette-color="primary" id="text-0"></path></svg></g></svg></g><g transform="matrix(1,0,0,1,0,82.27248197678098)"><svg viewBox="0 0 244.43136 25.2851189262308" height="25.2851189262308" width="244.43136"><g transform="matrix(1,0,0,1,0,0)"><svg width="244.43136" viewBox="0.9500000476837158 -37.5 465.5999755859375 48.16999816894531" height="25.2851189262308" data-palette-color="#0225e0"><path d="M19.46-35.55L19.46 0 11.55 0 11.55-35.55 19.46-35.55ZM30.2-35.55L30.2-29.13 0.95-29.13 0.95-35.55 30.2-35.55ZM41.18-37.5L41.18 0 33.54 0 33.54-37.5 41.18-37.5ZM40.13-14.06L38.13-13.96Q38.13-17.72 39.37-20.64 40.6-23.56 42.82-25.23 45.04-26.9 48.04-26.9L48.04-26.9Q50.66-26.9 52.63-25.89 54.61-24.88 55.72-22.6 56.83-20.31 56.83-16.5L56.83-16.5 56.83 0 49.17 0 49.17-16.55Q49.17-18.19 48.7-19.09 48.24-20 47.35-20.36 46.46-20.73 45.19-20.73L45.19-20.73Q43.72-20.73 42.76-20.24 41.79-19.75 41.21-18.86 40.62-17.97 40.38-16.75 40.13-15.53 40.13-14.06L40.13-14.06ZM74.26 0.49L74.26 0.49Q70.06 0.49 67.07-1.26 64.08-3 62.5-5.91 60.91-8.81 60.91-12.3L60.91-12.3 60.91-13.23Q60.91-17.16 62.4-20.26 63.89-23.36 66.68-25.13 69.48-26.9 73.41-26.9L73.41-26.9Q77.24-26.9 79.87-25.29 82.49-23.68 83.86-20.76 85.22-17.85 85.22-13.89L85.22-13.89 85.22-10.67 64.06-10.67 64.06-15.77 77.75-15.77 77.75-16.38Q77.73-17.7 77.27-18.69 76.8-19.68 75.84-20.23 74.87-20.78 73.36-20.78L73.36-20.78Q71.55-20.78 70.5-19.76 69.45-18.75 69-17.05 68.55-15.36 68.55-13.23L68.55-13.23 68.55-12.3Q68.55-10.33 69.28-8.84 70.01-7.35 71.41-6.51 72.8-5.66 74.75-5.66L74.75-5.66Q76.58-5.66 78.21-6.34 79.83-7.01 81-8.5L81-8.5 84.61-4.25Q83.39-2.47 80.76-0.99 78.12 0.49 74.26 0.49ZM113.88 0.49L113.88 0.49Q109.68 0.49 106.69-1.26 103.7-3 102.11-5.91 100.53-8.81 100.53-12.3L100.53-12.3 100.53-13.23Q100.53-17.16 102.02-20.26 103.51-23.36 106.3-25.13 109.1-26.9 113.03-26.9L113.03-26.9Q116.86-26.9 119.48-25.29 122.11-23.68 123.48-20.76 124.84-17.85 124.84-13.89L124.84-13.89 124.84-10.67 103.68-10.67 103.68-15.77 117.37-15.77 117.37-16.38Q117.35-17.7 116.88-18.69 116.42-19.68 115.46-20.23 114.49-20.78 112.98-20.78L112.98-20.78Q111.17-20.78 110.12-19.76 109.07-18.75 108.62-17.05 108.17-15.36 108.17-13.23L108.17-13.23 108.17-12.3Q108.17-10.33 108.9-8.84 109.63-7.35 111.03-6.51 112.42-5.66 114.37-5.66L114.37-5.66Q116.2-5.66 117.82-6.34 119.45-7.01 120.62-8.5L120.62-8.5 124.23-4.25Q123.01-2.47 120.38-0.99 117.74 0.49 113.88 0.49ZM142.59-6.4L142.59-17.58Q142.59-19.29 141.75-20.3 140.91-21.31 139.05-21.31L139.05-21.31Q138-21.31 137.26-20.97 136.51-20.63 136.11-19.98 135.71-19.34 135.71-18.36L135.71-18.36 128.09-18.36Q128.09-20.78 129.49-22.69 130.9-24.61 133.45-25.76 136-26.9 139.47-26.9L139.47-26.9Q142.57-26.9 144.99-25.87 147.42-24.83 148.84-22.74 150.26-20.65 150.26-17.53L150.26-17.53 150.26-6.57Q150.26-4.15 150.54-2.8 150.82-1.44 151.33-0.42L151.33-0.42 151.33 0 143.66 0Q143.13-1.15 142.86-2.87 142.59-4.59 142.59-6.4L142.59-6.4ZM143.57-16.19L143.62-11.84 139.9-11.84Q137.34-11.84 136.23-10.69 135.12-9.55 135.12-7.96L135.12-7.96Q135.12-6.79 135.96-6.02 136.8-5.25 138.2-5.25L138.2-5.25Q139.66-5.25 140.73-5.82 141.81-6.4 142.38-7.19 142.96-7.98 142.91-8.67L142.91-8.67 144.81-5.4Q144.42-4.42 143.77-3.39 143.13-2.37 142.15-1.49 141.17-0.61 139.78-0.06 138.39 0.49 136.49 0.49L136.49 0.49Q134 0.49 131.95-0.52 129.89-1.54 128.69-3.33 127.48-5.13 127.48-7.47L127.48-7.47Q127.48-11.6 130.54-13.89 133.61-16.19 139.76-16.19L139.76-16.19 143.57-16.19ZM169.37-7.4L169.37-7.4Q169.37-8.11 168.94-8.62 168.52-9.13 167.38-9.58 166.24-10.03 164.12-10.47L164.12-10.47Q161.46-11.06 159.34-12.07 157.21-13.09 155.98-14.69 154.75-16.28 154.75-18.58L154.75-18.58Q154.75-20.8 156.02-22.71 157.28-24.61 159.68-25.76 162.07-26.9 165.44-26.9L165.44-26.9Q168.93-26.9 171.46-25.81 173.98-24.71 175.35-22.78 176.72-20.85 176.72-18.33L176.72-18.33 169.1-18.33Q169.1-19.82 168.23-20.7 167.37-21.58 165.41-21.58L165.41-21.58Q164.41-21.58 163.64-21.24 162.88-20.9 162.46-20.32 162.05-19.75 162.05-18.97L162.05-18.97Q162.05-18.26 162.5-17.71 162.95-17.16 163.96-16.76 164.98-16.36 166.68-16.04L166.68-16.04Q169.47-15.53 171.75-14.61 174.03-13.7 175.4-12.05 176.77-10.4 176.77-7.67L176.77-7.67Q176.77-5.32 175.38-3.48 173.98-1.64 171.44-0.57 168.91 0.49 165.46 0.49L165.46 0.49Q161.7 0.49 159.13-0.87 156.55-2.22 155.22-4.28 153.89-6.35 153.89-8.5L153.89-8.5 161.09-8.5Q161.17-7.23 161.78-6.42 162.39-5.62 163.39-5.24 164.39-4.86 165.63-4.86L165.63-4.86Q166.88-4.86 167.7-5.18 168.52-5.49 168.94-6.07 169.37-6.64 169.37-7.4ZM188.87-3.08L195.73-26.42 203.89-26.42 193.37 3.93Q193 4.93 192.41 6.09 191.83 7.25 190.86 8.3 189.9 9.35 188.41 10.01 186.92 10.67 184.77 10.67L184.77 10.67Q184.06 10.67 183.56 10.62 183.06 10.57 182.6 10.46 182.14 10.35 181.5 10.18L181.5 10.18 181.5 4.44Q181.77 4.44 182.04 4.46 182.31 4.47 182.58 4.47L182.58 4.47Q184.63 4.47 185.55 3.86 186.48 3.25 186.92 1.98L186.92 1.98 188.87-3.08ZM186.63-26.42L192.02-7.91 193 0.51 187.85 0.73 178.45-26.42 186.63-26.42ZM226.54-7.4L231.86-26.42 236.65-26.42 235.16-17.77 229.86 0 225.88 0 226.54-7.4ZM224.27-26.42L227.91-7.47 228.15 0 223.49 0 216.92-26.42 224.27-26.42ZM241.29-7.84L244.87-26.42 252.2-26.42 245.68 0 240.99 0 241.29-7.84ZM237.28-26.42L242.63-7.47 243.29 0 239.28 0 234.01-17.72 232.57-26.42 237.28-26.42ZM269.48-6.4L269.48-17.58Q269.48-19.29 268.64-20.3 267.8-21.31 265.94-21.31L265.94-21.31Q264.89-21.31 264.15-20.97 263.4-20.63 263-19.98 262.6-19.34 262.6-18.36L262.6-18.36 254.98-18.36Q254.98-20.78 256.38-22.69 257.79-24.61 260.34-25.76 262.89-26.9 266.36-26.9L266.36-26.9Q269.46-26.9 271.89-25.87 274.32-24.83 275.73-22.74 277.15-20.65 277.15-17.53L277.15-17.53 277.15-6.57Q277.15-4.15 277.43-2.8 277.71-1.44 278.22-0.42L278.22-0.42 278.22 0 270.56 0Q270.02-1.15 269.75-2.87 269.48-4.59 269.48-6.4L269.48-6.4ZM270.46-16.19L270.51-11.84 266.8-11.84Q264.23-11.84 263.12-10.69 262.01-9.55 262.01-7.96L262.01-7.96Q262.01-6.79 262.85-6.02 263.7-5.25 265.09-5.25L265.09-5.25Q266.55-5.25 267.63-5.82 268.7-6.4 269.27-7.19 269.85-7.98 269.8-8.67L269.8-8.67 271.7-5.4Q271.31-4.42 270.67-3.39 270.02-2.37 269.04-1.49 268.07-0.61 266.67-0.06 265.28 0.49 263.38 0.49L263.38 0.49Q260.89 0.49 258.84-0.52 256.79-1.54 255.58-3.33 254.37-5.13 254.37-7.47L254.37-7.47Q254.37-11.6 257.43-13.89 260.5-16.19 266.65-16.19L266.65-16.19 270.46-16.19ZM290.06-3.08L296.92-26.42 305.08-26.42 294.55 3.93Q294.19 4.93 293.6 6.09 293.01 7.25 292.05 8.3 291.09 9.35 289.6 10.01 288.11 10.67 285.96 10.67L285.96 10.67Q285.25 10.67 284.75 10.62 284.25 10.57 283.79 10.46 283.32 10.35 282.69 10.18L282.69 10.18 282.69 4.44Q282.96 4.44 283.22 4.46 283.49 4.47 283.76 4.47L283.76 4.47Q285.81 4.47 286.74 3.86 287.67 3.25 288.11 1.98L288.11 1.98 290.06-3.08ZM287.81-26.42L293.21-7.91 294.19 0.51 289.04 0.73 279.64-26.42 287.81-26.42ZM333.49-26.42L333.49-20.87 317.77-20.87 317.77-26.42 333.49-26.42ZM321.43-32.93L329.07-32.93 329.07-8.4Q329.07-7.35 329.34-6.77 329.61-6.2 330.2-5.98 330.8-5.76 331.73-5.76L331.73-5.76Q332.39-5.76 332.89-5.81 333.39-5.86 333.76-5.93L333.76-5.93 333.76-0.2Q332.8 0.15 331.73 0.32 330.66 0.49 329.34 0.49L329.34 0.49Q326.9 0.49 325.13-0.32 323.36-1.12 322.39-2.89 321.43-4.66 321.43-7.5L321.43-7.5 321.43-32.93ZM335.51-12.94L335.51-13.45Q335.51-17.31 336.98-20.35 338.44-23.39 341.25-25.15 344.06-26.9 348.09-26.9L348.09-26.9Q352.19-26.9 355.01-25.15 357.83-23.39 359.28-20.35 360.73-17.31 360.73-13.45L360.73-13.45 360.73-12.94Q360.73-9.11 359.28-6.05 357.83-3 355.02-1.26 352.21 0.49 348.13 0.49L348.13 0.49Q344.08 0.49 341.26-1.26 338.44-3 336.98-6.05 335.51-9.11 335.51-12.94L335.51-12.94ZM343.15-13.45L343.15-12.94Q343.15-10.91 343.62-9.25 344.08-7.59 345.18-6.62 346.28-5.64 348.13-5.64L348.13-5.64Q349.99-5.64 351.09-6.62 352.19-7.59 352.65-9.25 353.11-10.91 353.11-12.94L353.11-12.94 353.11-13.45Q353.11-15.43 352.65-17.1 352.19-18.77 351.09-19.78 349.99-20.78 348.09-20.78L348.09-20.78Q346.25-20.78 345.17-19.78 344.08-18.77 343.62-17.1 343.15-15.43 343.15-13.45L343.15-13.45ZM384.95-21.34L384.95 10.16 377.3 10.16 377.3-26.42 384.38-26.42 384.95-21.34ZM401.42-13.53L401.42-13.01Q401.42-9.16 400.24-6.1 399.06-3.05 396.77-1.28 394.49 0.49 391.15 0.49L391.15 0.49Q387.92 0.49 385.86-1.32 383.8-3.13 382.65-6.14 381.5-9.16 380.99-12.79L380.99-12.79 380.99-13.35Q381.48-17.26 382.63-20.31 383.77-23.36 385.84-25.13 387.9-26.9 391.12-26.9L391.12-26.9Q394.47-26.9 396.76-25.23 399.06-23.56 400.24-20.54 401.42-17.53 401.42-13.53L401.42-13.53ZM393.78-13.01L393.78-13.53Q393.78-15.6 393.33-17.22 392.88-18.85 391.85-19.79 390.83-20.73 389.12-20.73L389.12-20.73Q387.78-20.73 386.84-20.31 385.9-19.9 385.31-19.08 384.73-18.26 384.43-17.05 384.14-15.84 384.12-14.26L384.12-14.26 384.12-11.89Q384.16-10.08 384.66-8.67 385.17-7.25 386.25-6.45 387.34-5.64 389.17-5.64L389.17-5.64Q390.9-5.64 391.92-6.64 392.93-7.64 393.36-9.31 393.78-10.99 393.78-13.01L393.78-13.01ZM419.49-6.4L419.49-17.58Q419.49-19.29 418.65-20.3 417.8-21.31 415.95-21.31L415.95-21.31Q414.9-21.31 414.15-20.97 413.41-20.63 413.01-19.98 412.6-19.34 412.6-18.36L412.6-18.36 404.99-18.36Q404.99-20.78 406.39-22.69 407.79-24.61 410.35-25.76 412.9-26.9 416.36-26.9L416.36-26.9Q419.46-26.9 421.89-25.87 424.32-24.83 425.74-22.74 427.15-20.65 427.15-17.53L427.15-17.53 427.15-6.57Q427.15-4.15 427.44-2.8 427.72-1.44 428.23-0.42L428.23-0.42 428.23 0 420.56 0Q420.03-1.15 419.76-2.87 419.49-4.59 419.49-6.4L419.49-6.4ZM420.47-16.19L420.51-11.84 416.8-11.84Q414.24-11.84 413.13-10.69 412.02-9.55 412.02-7.96L412.02-7.96Q412.02-6.79 412.86-6.02 413.7-5.25 415.09-5.25L415.09-5.25Q416.56-5.25 417.63-5.82 418.71-6.4 419.28-7.19 419.85-7.98 419.81-8.67L419.81-8.67 421.71-5.4Q421.32-4.42 420.67-3.39 420.03-2.37 419.05-1.49 418.07-0.61 416.68-0.06 415.29 0.49 413.39 0.49L413.39 0.49Q410.9 0.49 408.84-0.52 406.79-1.54 405.58-3.33 404.38-5.13 404.38-7.47L404.38-7.47Q404.38-11.6 407.44-13.89 410.5-16.19 416.66-16.19L416.66-16.19 420.47-16.19ZM440.07-3.08L446.93-26.42 455.08-26.42 444.56 3.93Q444.19 4.93 443.61 6.09 443.02 7.25 442.06 8.3 441.09 9.35 439.6 10.01 438.11 10.67 435.97 10.67L435.97 10.67Q435.26 10.67 434.76 10.62 434.26 10.57 433.79 10.46 433.33 10.35 432.69 10.18L432.69 10.18 432.69 4.44Q432.96 4.44 433.23 4.46 433.5 4.47 433.77 4.47L433.77 4.47Q435.82 4.47 436.75 3.86 437.67 3.25 438.11 1.98L438.11 1.98 440.07-3.08ZM437.82-26.42L443.22-7.91 444.19 0.51 439.04 0.73 429.64-26.42 437.82-26.42ZM458.03-3.74L458.03-3.74Q458.03-5.47 459.21-6.62 460.38-7.76 462.28-7.76L462.28-7.76Q464.23-7.76 465.39-6.62 466.55-5.47 466.55-3.74L466.55-3.74Q466.55-2.03 465.39-0.88 464.23 0.27 462.28 0.27L462.28 0.27Q460.38 0.27 459.21-0.88 458.03-2.03 458.03-3.74Z" opacity="1" transform="matrix(1,0,0,1,0,0)" fill="#0225e0" class="undefined-text-1" data-fill-palette-color="secondary" id="text-1"></path></svg></g></svg></g></svg></g></svg></g></svg></g></svg></g></svg></g><g><path d="M151.089 193.092A122.216 122.216 0 1 0 151.089 54.108L157.091 54.108A116.213 116.213 0 1 1 157.091 193.092L151.089 193.092" fill="#0225e0" stroke="transparent" data-fill-palette-color="tertiary"></path></g></svg></g></svg><rect width="395.52" height="247.2" fill="none" stroke="none" visibility="hidden"></rect></g></svg></g></svg>